<svg width="412" height="412" viewBox="0 0 412 412" fill="none" xmlns="http://www.w3.org/2000/svg">
<mask id="path-2-inside-2_685_14633" fill="white">
<path d="M80.7289 331.271C55.9527 306.495 39.0798 274.928 32.244 240.562C25.4083 206.196 28.9166 170.576 42.3255 138.204C55.7343 105.832 78.4413 78.1634 107.575 58.6968C136.709 39.2302 170.961 28.84 206 28.84C241.039 28.84 275.291 39.2302 304.425 58.6968C333.559 78.1634 356.266 105.832 369.674 138.204C383.083 170.576 386.592 206.197 379.756 240.562C372.92 274.928 356.047 306.495 331.271 331.271L326.26 326.26C350.045 302.475 366.243 272.171 372.806 239.18C379.368 206.189 376 171.993 363.127 140.916C350.255 109.839 328.456 83.2769 300.488 64.5889C272.519 45.901 239.637 35.9264 206 35.9264C172.363 35.9264 139.481 45.901 111.512 64.5889C83.5437 83.2769 61.7449 109.839 48.8725 140.916C36 171.993 32.632 206.189 39.1943 239.18C45.7566 272.171 61.9546 302.475 85.7398 326.26L80.7289 331.271Z"/>
</mask>
<path d="M80.7289 331.271C55.9527 306.495 39.0798 274.928 32.244 240.562C25.4083 206.196 28.9166 170.576 42.3255 138.204C55.7343 105.832 78.4413 78.1634 107.575 58.6968C136.709 39.2302 170.961 28.84 206 28.84C241.039 28.84 275.291 39.2302 304.425 58.6968C333.559 78.1634 356.266 105.832 369.674 138.204C383.083 170.576 386.592 206.197 379.756 240.562C372.92 274.928 356.047 306.495 331.271 331.271L326.26 326.26C350.045 302.475 366.243 272.171 372.806 239.18C379.368 206.189 376 171.993 363.127 140.916C350.255 109.839 328.456 83.2769 300.488 64.5889C272.519 45.901 239.637 35.9264 206 35.9264C172.363 35.9264 139.481 45.901 111.512 64.5889C83.5437 83.2769 61.7449 109.839 48.8725 140.916C36 171.993 32.632 206.189 39.1943 239.18C45.7566 272.171 61.9546 302.475 85.7398 326.26L80.7289 331.271Z" stroke="#65C9AB" stroke-width="16.48" mask="url(#path-2-inside-2_685_14633)"/>
</svg>
