<svg width="412" height="412" viewBox="0 0 412 412" fill="none" xmlns="http://www.w3.org/2000/svg">
<mask id="path-6-inside-6_685_14633" fill="white">
<path d="M206 173.04C212.519 173.04 218.891 174.973 224.312 178.595C229.732 182.216 233.956 187.364 236.451 193.387C238.946 199.409 239.598 206.037 238.327 212.43C237.055 218.824 233.916 224.697 229.306 229.306C224.697 233.916 218.824 237.055 212.43 238.327C206.037 239.598 199.409 238.946 193.387 236.451C187.364 233.956 182.216 229.732 178.595 224.312C174.973 218.891 173.04 212.519 173.04 206H174.358C174.358 212.258 176.214 218.376 179.691 223.579C183.168 228.783 188.11 232.838 193.891 235.233C199.673 237.628 206.035 238.255 212.173 237.034C218.311 235.813 223.949 232.799 228.374 228.374C232.799 223.949 235.813 218.311 237.034 212.173C238.255 206.035 237.628 199.673 235.233 193.891C232.838 188.11 228.783 183.168 223.579 179.691C218.376 176.214 212.258 174.358 206 174.358V173.04Z"/>
</mask>
<path d="M206 173.04C212.519 173.04 218.891 174.973 224.312 178.595C229.732 182.216 233.956 187.364 236.451 193.387C238.946 199.409 239.598 206.037 238.327 212.43C237.055 218.824 233.916 224.697 229.306 229.306C224.697 233.916 218.824 237.055 212.43 238.327C206.037 239.598 199.409 238.946 193.387 236.451C187.364 233.956 182.216 229.732 178.595 224.312C174.973 218.891 173.04 212.519 173.04 206H174.358C174.358 212.258 176.214 218.376 179.691 223.579C183.168 228.783 188.11 232.838 193.891 235.233C199.673 237.628 206.035 238.255 212.173 237.034C218.311 235.813 223.949 232.799 228.374 228.374C232.799 223.949 235.813 218.311 237.034 212.173C238.255 206.035 237.628 199.673 235.233 193.891C232.838 188.11 228.783 183.168 223.579 179.691C218.376 176.214 212.258 174.358 206 174.358V173.04Z" stroke="#65C9AB" stroke-width="16.48" mask="url(#path-6-inside-6_685_14633)"/>

</svg>
