<svg width="412" height="412" viewBox="0 0 412 412" fill="none" xmlns="http://www.w3.org/2000/svg">
<mask id="path-4-inside-4_685_14633" fill="white">
<path d="M206 337.84C179.925 337.84 154.435 330.108 132.754 315.621C111.073 301.134 94.1744 280.544 84.1958 256.453C74.2171 232.362 71.6062 205.854 76.6933 180.279C81.7804 154.705 94.3369 131.213 112.775 112.775C131.213 94.3369 154.705 81.7804 180.279 76.6933C205.854 71.6062 232.362 74.2171 256.453 84.1958C280.544 94.1744 301.134 111.073 315.621 132.754C330.108 154.435 337.84 179.925 337.84 206L332.566 206C332.566 180.968 325.143 156.497 311.236 135.684C297.329 114.87 277.562 98.6475 254.435 89.0679C231.308 79.4884 205.86 76.982 181.308 81.8656C156.757 86.7492 134.205 98.8034 116.504 116.504C98.8035 134.205 86.7492 156.757 81.8656 181.308C76.982 205.86 79.4884 231.308 89.0679 254.435C98.6474 277.562 114.87 297.329 135.684 311.236C156.497 325.143 180.968 332.566 206 332.566V337.84Z"/>
</mask>
<path d="M206 337.84C179.925 337.84 154.435 330.108 132.754 315.621C111.073 301.134 94.1744 280.544 84.1958 256.453C74.2171 232.362 71.6062 205.854 76.6933 180.279C81.7804 154.705 94.3369 131.213 112.775 112.775C131.213 94.3369 154.705 81.7804 180.279 76.6933C205.854 71.6062 232.362 74.2171 256.453 84.1958C280.544 94.1744 301.134 111.073 315.621 132.754C330.108 154.435 337.84 179.925 337.84 206L332.566 206C332.566 180.968 325.143 156.497 311.236 135.684C297.329 114.87 277.562 98.6475 254.435 89.0679C231.308 79.4884 205.86 76.982 181.308 81.8656C156.757 86.7492 134.205 98.8034 116.504 116.504C98.8035 134.205 86.7492 156.757 81.8656 181.308C76.982 205.86 79.4884 231.308 89.0679 254.435C98.6474 277.562 114.87 297.329 135.684 311.236C156.497 325.143 180.968 332.566 206 332.566V337.84Z" stroke="#65C9AB" stroke-width="16.48" mask="url(#path-4-inside-4_685_14633)"/>

</svg>
