<svg width="412" height="412" viewBox="0 0 412 412" fill="none" xmlns="http://www.w3.org/2000/svg">
<mask id="path-5-inside-5_685_14633" fill="white">
<path d="M156.56 206C156.56 196.222 159.46 186.663 164.892 178.533C170.325 170.402 178.046 164.065 187.08 160.323C196.114 156.581 206.055 155.602 215.645 157.51C225.236 159.418 234.045 164.126 240.959 171.041C247.874 177.955 252.582 186.764 254.49 196.355C256.398 205.945 255.419 215.886 251.677 224.92C247.935 233.954 241.598 241.675 233.467 247.108C225.337 252.54 215.778 255.44 206 255.44V253.462C215.387 253.462 224.564 250.679 232.369 245.464C240.174 240.248 246.257 232.836 249.85 224.163C253.442 215.491 254.382 205.947 252.55 196.741C250.719 187.534 246.199 179.077 239.561 172.439C232.923 165.801 224.466 161.281 215.26 159.45C206.053 157.618 196.51 158.558 187.837 162.151C179.164 165.743 171.752 171.826 166.537 179.631C161.321 187.437 158.538 196.613 158.538 206H156.56Z"/>
</mask>
<path d="M156.56 206C156.56 196.222 159.46 186.663 164.892 178.533C170.325 170.402 178.046 164.065 187.08 160.323C196.114 156.581 206.055 155.602 215.645 157.51C225.236 159.418 234.045 164.126 240.959 171.041C247.874 177.955 252.582 186.764 254.49 196.355C256.398 205.945 255.419 215.886 251.677 224.92C247.935 233.954 241.598 241.675 233.467 247.108C225.337 252.54 215.778 255.44 206 255.44V253.462C215.387 253.462 224.564 250.679 232.369 245.464C240.174 240.248 246.257 232.836 249.85 224.163C253.442 215.491 254.382 205.947 252.55 196.741C250.719 187.534 246.199 179.077 239.561 172.439C232.923 165.801 224.466 161.281 215.26 159.45C206.053 157.618 196.51 158.558 187.837 162.151C179.164 165.743 171.752 171.826 166.537 179.631C161.321 187.437 158.538 196.613 158.538 206H156.56Z" stroke="#65C9AB" stroke-width="16.48" mask="url(#path-5-inside-5_685_14633)"/>

</svg>
