<svg width="412" height="412" viewBox="0 0 412 412" fill="none" xmlns="http://www.w3.org/2000/svg">
<path d="M108.043 223.28C107.713 223.28 107.433 223.181 107.202 222.983C106.972 222.753 106.856 222.456 106.856 222.093V189.908C106.856 189.545 106.972 189.249 107.202 189.018C107.433 188.787 107.713 188.672 108.043 188.672H133.949C134.312 188.672 134.609 188.787 134.839 189.018C135.07 189.249 135.185 189.545 135.185 189.908V222.093C135.185 222.423 135.07 222.703 134.839 222.934C134.609 223.165 134.312 223.28 133.949 223.28H129.5C129.17 223.28 128.89 223.165 128.659 222.934C128.429 222.703 128.313 222.423 128.313 222.093V194.852H113.728V222.093C113.728 222.423 113.613 222.703 113.382 222.934C113.185 223.165 112.904 223.28 112.542 223.28H108.043Z" fill="black"/>
<path d="M277.012 223.28C276.65 223.28 276.353 223.165 276.122 222.934C275.892 222.703 275.776 222.423 275.776 222.093V189.908C275.776 189.545 275.892 189.249 276.122 189.018C276.353 188.787 276.65 188.672 277.012 188.672H280.918C281.38 188.672 281.726 188.804 281.956 189.068C282.187 189.298 282.335 189.48 282.401 189.611L291.943 207.41L301.584 189.611C301.65 189.48 301.798 189.298 302.029 189.068C302.26 188.804 302.606 188.672 303.067 188.672H306.924C307.286 188.672 307.583 188.787 307.813 189.018C308.044 189.249 308.16 189.545 308.16 189.908V222.093C308.16 222.423 308.044 222.703 307.813 222.934C307.583 223.165 307.286 223.28 306.924 223.28H302.771C302.408 223.28 302.111 223.165 301.881 222.934C301.683 222.703 301.584 222.423 301.584 222.093V200.686L294.662 213.886C294.498 214.183 294.283 214.447 294.02 214.677C293.756 214.875 293.41 214.974 292.981 214.974H290.954C290.493 214.974 290.13 214.875 289.867 214.677C289.636 214.447 289.438 214.183 289.273 213.886L282.352 200.686V222.093C282.352 222.423 282.237 222.703 282.006 222.934C281.775 223.165 281.495 223.28 281.165 223.28H277.012Z" fill="black"/>
</svg>
