<svg width="412" height="412" viewBox="0 0 412 412" fill="none" xmlns="http://www.w3.org/2000/svg">


<mask id="path-3-inside-3_685_14633" fill="white">
<path d="M206 57.6801C235.335 57.6801 264.011 66.3789 288.402 82.6765C312.793 98.9741 331.804 122.139 343.03 149.24C354.256 176.342 357.193 206.165 351.47 234.936C345.747 263.707 331.621 290.135 310.878 310.878C290.135 331.621 263.707 345.747 234.936 351.47C206.165 357.193 176.342 354.256 149.24 343.03C122.139 331.804 98.9741 312.793 82.6765 288.402C66.3789 264.011 57.6801 235.335 57.6801 206H63.6129C63.6129 234.162 71.9637 261.691 87.6094 285.106C103.255 308.522 125.493 326.772 151.511 337.549C177.529 348.326 206.158 351.145 233.778 345.651C261.399 340.157 286.77 326.596 306.683 306.683C326.596 286.77 340.157 261.399 345.651 233.778C351.145 206.158 348.326 177.529 337.549 151.511C326.772 125.493 308.522 103.255 285.106 87.6094C261.691 71.9637 234.162 63.6129 206 63.6129V57.6801Z"/>
</mask>
<path d="M206 57.6801C235.335 57.6801 264.011 66.3789 288.402 82.6765C312.793 98.9741 331.804 122.139 343.03 149.24C354.256 176.342 357.193 206.165 351.47 234.936C345.747 263.707 331.621 290.135 310.878 310.878C290.135 331.621 263.707 345.747 234.936 351.47C206.165 357.193 176.342 354.256 149.24 343.03C122.139 331.804 98.9741 312.793 82.6765 288.402C66.3789 264.011 57.6801 235.335 57.6801 206H63.6129C63.6129 234.162 71.9637 261.691 87.6094 285.106C103.255 308.522 125.493 326.772 151.511 337.549C177.529 348.326 206.158 351.145 233.778 345.651C261.399 340.157 286.77 326.596 306.683 306.683C326.596 286.77 340.157 261.399 345.651 233.778C351.145 206.158 348.326 177.529 337.549 151.511C326.772 125.493 308.522 103.255 285.106 87.6094C261.691 71.9637 234.162 63.6129 206 63.6129V57.6801Z" stroke="#65C9AB" stroke-width="16.48" mask="url(#path-3-inside-3_685_14633)"/>

</svg>
