<svg width="412" height="412" viewBox="0 0 412 412" fill="none" xmlns="http://www.w3.org/2000/svg">
<mask id="path-1-inside-1_685_14633" fill="white">
<path d="M206 0C246.743 4.85855e-07 286.571 12.0817 320.447 34.7173C354.324 57.3528 380.728 89.5256 396.319 127.167C411.911 164.809 415.99 206.229 408.042 246.189C400.093 286.149 380.474 322.854 351.664 351.664C322.854 380.474 286.149 400.093 246.189 408.042C206.229 415.99 164.809 411.911 127.167 396.319C89.5256 380.728 57.3528 354.324 34.7173 320.447C12.0817 286.571 -9.7171e-07 246.743 0 206H8.24001C8.24 245.113 19.8384 283.348 41.5686 315.87C63.2987 348.391 94.1846 373.738 130.321 388.706C166.456 403.674 206.219 407.591 244.581 399.96C282.943 392.329 318.18 373.495 345.837 345.837C373.495 318.18 392.329 282.943 399.96 244.581C407.591 206.219 403.674 166.456 388.706 130.321C373.738 94.1846 348.391 63.2987 315.87 41.5686C283.348 19.8384 245.113 8.24001 206 8.24001V0Z"/>
</mask>
<path d="M206 0C246.743 4.85855e-07 286.571 12.0817 320.447 34.7173C354.324 57.3528 380.728 89.5256 396.319 127.167C411.911 164.809 415.99 206.229 408.042 246.189C400.093 286.149 380.474 322.854 351.664 351.664C322.854 380.474 286.149 400.093 246.189 408.042C206.229 415.99 164.809 411.911 127.167 396.319C89.5256 380.728 57.3528 354.324 34.7173 320.447C12.0817 286.571 -9.7171e-07 246.743 0 206H8.24001C8.24 245.113 19.8384 283.348 41.5686 315.87C63.2987 348.391 94.1846 373.738 130.321 388.706C166.456 403.674 206.219 407.591 244.581 399.96C282.943 392.329 318.18 373.495 345.837 345.837C373.495 318.18 392.329 282.943 399.96 244.581C407.591 206.219 403.674 166.456 388.706 130.321C373.738 94.1846 348.391 63.2987 315.87 41.5686C283.348 19.8384 245.113 8.24001 206 8.24001V0Z" stroke="#65C9AB" stroke-width="16.48" mask="url(#path-1-inside-1_685_14633)"/>
<mask id="path-2-inside-2_685_14633" fill="white">
<path d="M80.7289 331.271C55.9527 306.495 39.0798 274.928 32.244 240.562C25.4083 206.196 28.9166 170.576 42.3255 138.204C55.7343 105.832 78.4413 78.1634 107.575 58.6968C136.709 39.2302 170.961 28.84 206 28.84C241.039 28.84 275.291 39.2302 304.425 58.6968C333.559 78.1634 356.266 105.832 369.674 138.204C383.083 170.576 386.592 206.197 379.756 240.562C372.92 274.928 356.047 306.495 331.271 331.271L326.26 326.26C350.045 302.475 366.243 272.171 372.806 239.18C379.368 206.189 376 171.993 363.127 140.916C350.255 109.839 328.456 83.2769 300.488 64.5889C272.519 45.901 239.637 35.9264 206 35.9264C172.363 35.9264 139.481 45.901 111.512 64.5889C83.5437 83.2769 61.7449 109.839 48.8725 140.916C36 171.993 32.632 206.189 39.1943 239.18C45.7566 272.171 61.9546 302.475 85.7398 326.26L80.7289 331.271Z"/>
</mask>
<path d="M80.7289 331.271C55.9527 306.495 39.0798 274.928 32.244 240.562C25.4083 206.196 28.9166 170.576 42.3255 138.204C55.7343 105.832 78.4413 78.1634 107.575 58.6968C136.709 39.2302 170.961 28.84 206 28.84C241.039 28.84 275.291 39.2302 304.425 58.6968C333.559 78.1634 356.266 105.832 369.674 138.204C383.083 170.576 386.592 206.197 379.756 240.562C372.92 274.928 356.047 306.495 331.271 331.271L326.26 326.26C350.045 302.475 366.243 272.171 372.806 239.18C379.368 206.189 376 171.993 363.127 140.916C350.255 109.839 328.456 83.2769 300.488 64.5889C272.519 45.901 239.637 35.9264 206 35.9264C172.363 35.9264 139.481 45.901 111.512 64.5889C83.5437 83.2769 61.7449 109.839 48.8725 140.916C36 171.993 32.632 206.189 39.1943 239.18C45.7566 272.171 61.9546 302.475 85.7398 326.26L80.7289 331.271Z" stroke="#65C9AB" stroke-width="16.48" mask="url(#path-2-inside-2_685_14633)"/>
<mask id="path-3-inside-3_685_14633" fill="white">
<path d="M206 57.6801C235.335 57.6801 264.011 66.3789 288.402 82.6765C312.793 98.9741 331.804 122.139 343.03 149.24C354.256 176.342 357.193 206.165 351.47 234.936C345.747 263.707 331.621 290.135 310.878 310.878C290.135 331.621 263.707 345.747 234.936 351.47C206.165 357.193 176.342 354.256 149.24 343.03C122.139 331.804 98.9741 312.793 82.6765 288.402C66.3789 264.011 57.6801 235.335 57.6801 206H63.6129C63.6129 234.162 71.9637 261.691 87.6094 285.106C103.255 308.522 125.493 326.772 151.511 337.549C177.529 348.326 206.158 351.145 233.778 345.651C261.399 340.157 286.77 326.596 306.683 306.683C326.596 286.77 340.157 261.399 345.651 233.778C351.145 206.158 348.326 177.529 337.549 151.511C326.772 125.493 308.522 103.255 285.106 87.6094C261.691 71.9637 234.162 63.6129 206 63.6129V57.6801Z"/>
</mask>
<path d="M206 57.6801C235.335 57.6801 264.011 66.3789 288.402 82.6765C312.793 98.9741 331.804 122.139 343.03 149.24C354.256 176.342 357.193 206.165 351.47 234.936C345.747 263.707 331.621 290.135 310.878 310.878C290.135 331.621 263.707 345.747 234.936 351.47C206.165 357.193 176.342 354.256 149.24 343.03C122.139 331.804 98.9741 312.793 82.6765 288.402C66.3789 264.011 57.6801 235.335 57.6801 206H63.6129C63.6129 234.162 71.9637 261.691 87.6094 285.106C103.255 308.522 125.493 326.772 151.511 337.549C177.529 348.326 206.158 351.145 233.778 345.651C261.399 340.157 286.77 326.596 306.683 306.683C326.596 286.77 340.157 261.399 345.651 233.778C351.145 206.158 348.326 177.529 337.549 151.511C326.772 125.493 308.522 103.255 285.106 87.6094C261.691 71.9637 234.162 63.6129 206 63.6129V57.6801Z" stroke="#65C9AB" stroke-width="16.48" mask="url(#path-3-inside-3_685_14633)"/>
<mask id="path-4-inside-4_685_14633" fill="white">
<path d="M206 337.84C179.925 337.84 154.435 330.108 132.754 315.621C111.073 301.134 94.1744 280.544 84.1958 256.453C74.2171 232.362 71.6062 205.854 76.6933 180.279C81.7804 154.705 94.3369 131.213 112.775 112.775C131.213 94.3369 154.705 81.7804 180.279 76.6933C205.854 71.6062 232.362 74.2171 256.453 84.1958C280.544 94.1744 301.134 111.073 315.621 132.754C330.108 154.435 337.84 179.925 337.84 206L332.566 206C332.566 180.968 325.143 156.497 311.236 135.684C297.329 114.87 277.562 98.6475 254.435 89.0679C231.308 79.4884 205.86 76.982 181.308 81.8656C156.757 86.7492 134.205 98.8034 116.504 116.504C98.8035 134.205 86.7492 156.757 81.8656 181.308C76.982 205.86 79.4884 231.308 89.0679 254.435C98.6474 277.562 114.87 297.329 135.684 311.236C156.497 325.143 180.968 332.566 206 332.566V337.84Z"/>
</mask>
<path d="M206 337.84C179.925 337.84 154.435 330.108 132.754 315.621C111.073 301.134 94.1744 280.544 84.1958 256.453C74.2171 232.362 71.6062 205.854 76.6933 180.279C81.7804 154.705 94.3369 131.213 112.775 112.775C131.213 94.3369 154.705 81.7804 180.279 76.6933C205.854 71.6062 232.362 74.2171 256.453 84.1958C280.544 94.1744 301.134 111.073 315.621 132.754C330.108 154.435 337.84 179.925 337.84 206L332.566 206C332.566 180.968 325.143 156.497 311.236 135.684C297.329 114.87 277.562 98.6475 254.435 89.0679C231.308 79.4884 205.86 76.982 181.308 81.8656C156.757 86.7492 134.205 98.8034 116.504 116.504C98.8035 134.205 86.7492 156.757 81.8656 181.308C76.982 205.86 79.4884 231.308 89.0679 254.435C98.6474 277.562 114.87 297.329 135.684 311.236C156.497 325.143 180.968 332.566 206 332.566V337.84Z" stroke="#65C9AB" stroke-width="16.48" mask="url(#path-4-inside-4_685_14633)"/>
<mask id="path-5-inside-5_685_14633" fill="white">
<path d="M156.56 206C156.56 196.222 159.46 186.663 164.892 178.533C170.325 170.402 178.046 164.065 187.08 160.323C196.114 156.581 206.055 155.602 215.645 157.51C225.236 159.418 234.045 164.126 240.959 171.041C247.874 177.955 252.582 186.764 254.49 196.355C256.398 205.945 255.419 215.886 251.677 224.92C247.935 233.954 241.598 241.675 233.467 247.108C225.337 252.54 215.778 255.44 206 255.44V253.462C215.387 253.462 224.564 250.679 232.369 245.464C240.174 240.248 246.257 232.836 249.85 224.163C253.442 215.491 254.382 205.947 252.55 196.741C250.719 187.534 246.199 179.077 239.561 172.439C232.923 165.801 224.466 161.281 215.26 159.45C206.053 157.618 196.51 158.558 187.837 162.151C179.164 165.743 171.752 171.826 166.537 179.631C161.321 187.437 158.538 196.613 158.538 206H156.56Z"/>
</mask>
<path d="M156.56 206C156.56 196.222 159.46 186.663 164.892 178.533C170.325 170.402 178.046 164.065 187.08 160.323C196.114 156.581 206.055 155.602 215.645 157.51C225.236 159.418 234.045 164.126 240.959 171.041C247.874 177.955 252.582 186.764 254.49 196.355C256.398 205.945 255.419 215.886 251.677 224.92C247.935 233.954 241.598 241.675 233.467 247.108C225.337 252.54 215.778 255.44 206 255.44V253.462C215.387 253.462 224.564 250.679 232.369 245.464C240.174 240.248 246.257 232.836 249.85 224.163C253.442 215.491 254.382 205.947 252.55 196.741C250.719 187.534 246.199 179.077 239.561 172.439C232.923 165.801 224.466 161.281 215.26 159.45C206.053 157.618 196.51 158.558 187.837 162.151C179.164 165.743 171.752 171.826 166.537 179.631C161.321 187.437 158.538 196.613 158.538 206H156.56Z" stroke="#65C9AB" stroke-width="16.48" mask="url(#path-5-inside-5_685_14633)"/>
<mask id="path-6-inside-6_685_14633" fill="white">
<path d="M206 173.04C212.519 173.04 218.891 174.973 224.312 178.595C229.732 182.216 233.956 187.364 236.451 193.387C238.946 199.409 239.598 206.037 238.327 212.43C237.055 218.824 233.916 224.697 229.306 229.306C224.697 233.916 218.824 237.055 212.43 238.327C206.037 239.598 199.409 238.946 193.387 236.451C187.364 233.956 182.216 229.732 178.595 224.312C174.973 218.891 173.04 212.519 173.04 206H174.358C174.358 212.258 176.214 218.376 179.691 223.579C183.168 228.783 188.11 232.838 193.891 235.233C199.673 237.628 206.035 238.255 212.173 237.034C218.311 235.813 223.949 232.799 228.374 228.374C232.799 223.949 235.813 218.311 237.034 212.173C238.255 206.035 237.628 199.673 235.233 193.891C232.838 188.11 228.783 183.168 223.579 179.691C218.376 176.214 212.258 174.358 206 174.358V173.04Z"/>
</mask>
<path d="M206 173.04C212.519 173.04 218.891 174.973 224.312 178.595C229.732 182.216 233.956 187.364 236.451 193.387C238.946 199.409 239.598 206.037 238.327 212.43C237.055 218.824 233.916 224.697 229.306 229.306C224.697 233.916 218.824 237.055 212.43 238.327C206.037 239.598 199.409 238.946 193.387 236.451C187.364 233.956 182.216 229.732 178.595 224.312C174.973 218.891 173.04 212.519 173.04 206H174.358C174.358 212.258 176.214 218.376 179.691 223.579C183.168 228.783 188.11 232.838 193.891 235.233C199.673 237.628 206.035 238.255 212.173 237.034C218.311 235.813 223.949 232.799 228.374 228.374C232.799 223.949 235.813 218.311 237.034 212.173C238.255 206.035 237.628 199.673 235.233 193.891C232.838 188.11 228.783 183.168 223.579 179.691C218.376 176.214 212.258 174.358 206 174.358V173.04Z" stroke="#65C9AB" stroke-width="16.48" mask="url(#path-6-inside-6_685_14633)"/>
<path d="M108.043 223.28C107.713 223.28 107.433 223.181 107.202 222.983C106.972 222.753 106.856 222.456 106.856 222.093V189.908C106.856 189.545 106.972 189.249 107.202 189.018C107.433 188.787 107.713 188.672 108.043 188.672H133.949C134.312 188.672 134.609 188.787 134.839 189.018C135.07 189.249 135.185 189.545 135.185 189.908V222.093C135.185 222.423 135.07 222.703 134.839 222.934C134.609 223.165 134.312 223.28 133.949 223.28H129.5C129.17 223.28 128.89 223.165 128.659 222.934C128.429 222.703 128.313 222.423 128.313 222.093V194.852H113.728V222.093C113.728 222.423 113.613 222.703 113.382 222.934C113.185 223.165 112.904 223.28 112.542 223.28H108.043Z" fill="black"/>
<path d="M277.012 223.28C276.65 223.28 276.353 223.165 276.122 222.934C275.892 222.703 275.776 222.423 275.776 222.093V189.908C275.776 189.545 275.892 189.249 276.122 189.018C276.353 188.787 276.65 188.672 277.012 188.672H280.918C281.38 188.672 281.726 188.804 281.956 189.068C282.187 189.298 282.335 189.48 282.401 189.611L291.943 207.41L301.584 189.611C301.65 189.48 301.798 189.298 302.029 189.068C302.26 188.804 302.606 188.672 303.067 188.672H306.924C307.286 188.672 307.583 188.787 307.813 189.018C308.044 189.249 308.16 189.545 308.16 189.908V222.093C308.16 222.423 308.044 222.703 307.813 222.934C307.583 223.165 307.286 223.28 306.924 223.28H302.771C302.408 223.28 302.111 223.165 301.881 222.934C301.683 222.703 301.584 222.423 301.584 222.093V200.686L294.662 213.886C294.498 214.183 294.283 214.447 294.02 214.677C293.756 214.875 293.41 214.974 292.981 214.974H290.954C290.493 214.974 290.13 214.875 289.867 214.677C289.636 214.447 289.438 214.183 289.273 213.886L282.352 200.686V222.093C282.352 222.423 282.237 222.703 282.006 222.934C281.775 223.165 281.495 223.28 281.165 223.28H277.012Z" fill="black"/>
</svg>
