<svg width="412" height="412" viewBox="0 0 412 412" fill="none" xmlns="http://www.w3.org/2000/svg">

<mask id="path-1-inside-1_685_14633" fill="white">
<path d="M206 0C246.743 4.85855e-07 286.571 12.0817 320.447 34.7173C354.324 57.3528 380.728 89.5256 396.319 127.167C411.911 164.809 415.99 206.229 408.042 246.189C400.093 286.149 380.474 322.854 351.664 351.664C322.854 380.474 286.149 400.093 246.189 408.042C206.229 415.99 164.809 411.911 127.167 396.319C89.5256 380.728 57.3528 354.324 34.7173 320.447C12.0817 286.571 -9.7171e-07 246.743 0 206H8.24001C8.24 245.113 19.8384 283.348 41.5686 315.87C63.2987 348.391 94.1846 373.738 130.321 388.706C166.456 403.674 206.219 407.591 244.581 399.96C282.943 392.329 318.18 373.495 345.837 345.837C373.495 318.18 392.329 282.943 399.96 244.581C407.591 206.219 403.674 166.456 388.706 130.321C373.738 94.1846 348.391 63.2987 315.87 41.5686C283.348 19.8384 245.113 8.24001 206 8.24001V0Z"/>
</mask>
<path d="M206 0C246.743 4.85855e-07 286.571 12.0817 320.447 34.7173C354.324 57.3528 380.728 89.5256 396.319 127.167C411.911 164.809 415.99 206.229 408.042 246.189C400.093 286.149 380.474 322.854 351.664 351.664C322.854 380.474 286.149 400.093 246.189 408.042C206.229 415.99 164.809 411.911 127.167 396.319C89.5256 380.728 57.3528 354.324 34.7173 320.447C12.0817 286.571 -9.7171e-07 246.743 0 206H8.24001C8.24 245.113 19.8384 283.348 41.5686 315.87C63.2987 348.391 94.1846 373.738 130.321 388.706C166.456 403.674 206.219 407.591 244.581 399.96C282.943 392.329 318.18 373.495 345.837 345.837C373.495 318.18 392.329 282.943 399.96 244.581C407.591 206.219 403.674 166.456 388.706 130.321C373.738 94.1846 348.391 63.2987 315.87 41.5686C283.348 19.8384 245.113 8.24001 206 8.24001V0Z" stroke="#65C9AB" stroke-width="16.48" mask="url(#path-1-inside-1_685_14633)"/>


</svg>
